<?xml version="1.0" encoding="UTF-8"?>
<!-- Created with EazyDraw for Mac ( http://www.eazydraw.com/ ) -->

<svg
    version="1.1"
    xmlns:dc="http://purl.org/dc/elements/1.1/"
    xmlns:cc="http://creativecommons.org/ns#"
    xmlns:rdf="http://www.w3.org/1999/02/22-rdf-syntax-ns#"
    xmlns:svg="http://www.w3.org/2000/svg"
    xmlns:xlink="http://www.w3.org/1999/xlink"
    xmlns="http://www.w3.org/2000/svg"
    width="567.233"
    height="265.935"
    viewBox="0, 0, 567.233, 265.935"
    preserveAspectRatio="none"
    id="svg2">
   <defs
       id="defs_72E659A1"/>
   <metadata
       id="metadata7">
      <rdf:RDF>
         <cc:Work
             rdf:about="">
            <dc:format>image/svg+xml</dc:format>
            <dc:type rdf:resource="http://purl.org/dc/dcmitype/StillImage"/>
            <dc:title></dc:title>
         </cc:Work>
      </rdf:RDF>
   </metadata>
   <g
       id="layer_Paper"
       style="fill:#000000;fill-opacity:1;stroke:#000000;stroke-opacity:1;fill-rule:nonzero;stroke-linecap:square;stroke-linejoin:miter;stroke-width:1;stroke-miterlimit:10">
      <rect
          style="fill:#FFFFDB;stroke-linecap:butt"
          id="06308B91"
          x="0.5"
          y="0.5"
          width="566.233"
          height="264.935"/>
      <g
          id="28308B91">
         <polyline
             style="fill:#9EC8D0;stroke:none"
             id="0A308B91"
             points="15.118,40.111 15.118,15.536 33.912,15.536 33.912,40.111 15.118,40.111 15.118,173.223 15.118,54.753 33.912,54.753 33.912,173.223 15.118,173.223 15.118,173.223"/>
         <path
             style="fill:#9EC8D0;stroke:none"
             id="4C308B91"
             d="M50.304,173.223 L50.304,54.753 L68.815,54.753 L68.815,66.733 C70.793,61.751 73.219,57.979 76.092,55.419 C78.965,52.859 82.239,51.579 85.913,51.579 C91.848,51.579 96.393,54.037 99.549,58.952 C102.704,63.867 104.283,70.932 104.283,80.147
L104.283,173.223 L86.054,173.223 L86.054,93.765 C86.054,86.802 85.441,81.905 84.217,79.072 C82.991,76.24 80.943,74.822 78.07,74.822 C74.914,74.822 72.653,76.563 71.287,80.044 C69.92,83.525 69.238,89.431 69.238,97.758
L69.238,173.222 L50.304,173.222 z"/>
         <path
             style="fill:#9EC8D0;stroke:none"
             id="2E308B91"
             d="M171.97,126.736 C172.016,127.555 172.052,128.425 172.076,129.347 C172.099,130.269 172.111,131.618 172.111,133.392 C172.111,148.069 169.956,158.906 165.647,165.902 C161.337,172.9 154.66,176.398 145.616,176.398
C135.347,176.398 128.176,171.995 124.102,163.189 C120.027,154.383 117.99,138 117.99,114.04 C117.99,90.148 120.027,73.766 124.102,64.891 C128.176,56.018 135.347,51.579 145.616,51.579 C154.613,51.579 161.254,54.822 165.54,61.307
C169.826,67.793 171.97,77.828 171.97,91.411 L171.97,95.609 L153.883,95.609 L153.883,92.946 C153.883,85.779 153.247,80.625 151.975,77.485 C150.704,74.346 148.63,72.775 145.758,72.775 C142.837,72.775 140.729,74.311 139.434,77.382
C138.138,80.454 137.491,85.574 137.491,92.741 L137.491,133.596 C137.491,141.721 138.103,147.386 139.328,150.594 C140.553,153.803 142.649,155.407 145.616,155.407 C148.819,155.407 151.044,153.564 152.293,149.878
C153.541,146.192 154.166,139.298 154.166,129.194 L154.166,126.634 L171.97,126.736 z"/>
         <polyline
             style="fill:#9EC8D0;stroke:none"
             id="10408B91"
             points="186.03,173.223 186.03,15.536 204.824,15.536 204.824,173.223 186.03,173.223 186.03,173.223"/>
         <polyline
             style="fill:#9EC8D0;stroke:none"
             id="52408B91"
             points="221.074,40.111 221.074,15.536 239.868,15.536 239.868,40.111 221.074,40.111 221.074,173.223 221.074,54.753 239.868,54.753 239.868,173.223 221.074,173.223 221.074,173.223"/>
         <path
             style="fill:#9EC8D0;stroke:none"
             id="B4408B91"
             d="M256.401,173.223 L256.401,54.753 L273.923,54.753 L273.923,68.372 C276.089,62.161 278.657,57.809 281.625,55.317 C284.592,52.826 288.62,51.579 293.707,51.579 C297.71,51.579 301.196,52.894 304.164,55.521 C307.132,58.149 309.251,61.818 310.523,66.528
C313.019,61.203 315.727,57.382 318.648,55.06 C321.568,52.74 325.124,51.579 329.316,51.579 C335.769,51.579 340.632,54.157 343.906,59.31 C347.179,64.465 348.817,72.093 348.817,82.195 L348.817,173.223 L330.306,173.223
L330.306,97.554 C330.306,88.202 329.646,82.161 328.327,79.43 C327.008,76.701 324.582,75.334 321.05,75.334 C317.753,75.334 315.409,76.888 314.02,79.993 C312.63,83.1 311.936,88.747 311.936,96.939 L311.936,173.222
L293.284,173.222 L293.284,96.222 C293.284,88.168 292.636,82.672 291.341,79.737 C290.045,76.802 287.796,75.334 284.593,75.334 C281.201,75.334 278.764,76.905 277.28,80.044 C275.796,83.185 275.054,88.44 275.054,95.813
L275.054,173.223 L256.401,173.223 z"/>
         <path
             style="fill:#9EC8D0;stroke:none"
             id="76408B91"
             d="M364.925,173.223 L364.925,15.536 L383.86,15.536 L383.86,64.787 C385.461,60.35 387.569,57.04 390.184,54.855 C392.798,52.671 396.036,51.578 399.899,51.578 C407.717,51.578 413.193,56.101 416.326,65.145 C419.458,74.191 421.024,90.659 421.024,114.55
C421.024,137.624 419.41,153.7 416.185,162.778 C412.958,171.858 407.389,176.397 399.475,176.397 C395.518,176.397 392.138,175.082 389.336,172.455 C386.533,169.828 384.378,165.953 382.871,160.833 L382.871,173.223
L364.925,173.223 z M393.116,74.617 C389.347,74.617 386.768,77.212 385.379,82.399 C383.989,87.587 383.295,99.772 383.295,118.954 C383.295,133.699 383.99,143.187 385.379,147.419 C386.768,151.652 389.347,153.768 393.116,153.768
C396.46,153.768 398.744,151.448 399.969,146.805 C401.194,142.163 401.806,131.344 401.806,114.346 C401.806,96.803 401.194,85.796 399.969,81.324 C398.744,76.854 396.46,74.617 393.116,74.617 z"/>
         <path
             style="fill:#9EC8D0;stroke:none"
             id="38408B91"
             d="M471.259,132.572 L489.064,132.572 C489.064,133.119 489.087,133.903 489.135,134.927 C489.181,135.951 489.206,136.703 489.206,137.18 C489.206,150.696 486.98,160.612 482.529,166.925 C478.078,173.238 471.024,176.397 461.368,176.397
C456.281,176.397 452.017,175.475 448.58,173.632 C445.141,171.789 442.315,168.922 440.101,165.031 C437.462,160.458 435.602,154.689 434.519,147.726 C433.435,140.763 432.894,128.238 432.894,110.147 C432.894,95.745 433.364,85.437 434.307,79.224
C435.248,73.013 436.85,67.927 439.111,63.967 C441.466,59.871 444.539,56.783 448.331,54.7 C452.122,52.618 456.633,51.577 461.861,51.577 C466.901,51.577 471.246,52.687 474.897,54.905 C478.547,57.124 481.574,60.486 483.976,64.99
C486,68.95 487.449,73.916 488.321,79.888 C489.192,85.862 489.628,95.503 489.628,108.814 L489.628,117.825 L452.464,117.825 C452.369,118.713 452.311,119.652 452.287,120.641 C452.263,121.631 452.252,123.218 452.252,125.402
C452.252,136.665 452.97,144.549 454.407,149.055 C455.844,153.56 458.281,155.813 461.72,155.813 C465.064,155.813 467.489,153.987 468.997,150.334 C470.505,146.687 471.259,140.764 471.259,132.572 z M452.253,98.987
L470.623,98.987 L470.623,93.969 C470.623,85.846 469.939,80.248 468.574,77.177 C467.207,74.105 464.805,72.569 461.367,72.569 C458.022,72.569 455.644,74.156 454.231,77.331 C452.818,80.505 452.111,86.052 452.111,93.97
C452.205,96.223 452.253,97.896 452.253,98.987 z"/>
         <path
             style="fill:#9EC8D0;stroke:none"
             id="A9408B91"
             d="M540.005,160.833 C538.45,165.953 536.283,169.828 533.505,172.455 C530.725,175.082 527.334,176.397 523.331,176.397 C515.464,176.397 509.907,171.858 506.657,162.778 C503.407,153.7 501.782,137.625 501.782,114.55
C501.782,90.659 503.36,74.191 506.515,65.145 C509.67,56.101 515.135,51.578 522.907,51.578 C526.768,51.578 530.018,52.671 532.657,54.855 C535.294,57.041 537.391,60.351 538.945,64.787 L538.945,15.536 L557.951,15.536
L557.951,173.223 L540.005,173.223 L540.005,160.833 z M520.999,112.196 C520.999,130.491 521.61,141.993 522.836,146.703 C524.06,151.413 526.344,153.768 529.69,153.768 C533.458,153.768 536.037,151.669 537.426,147.471
C538.815,143.273 539.51,134.656 539.51,121.617 C539.51,100.661 538.814,87.589 537.426,82.4 C536.036,77.213 533.457,74.618 529.69,74.618 C526.392,74.618 524.119,76.855 522.872,81.325 C521.622,85.796 520.999,96.086 520.999,112.196
z"/>
      </g>
      <g
          id="8B408B91">
         <path
             style="fill:#ED92A1;stroke:none"
             id="2D408B91"
             d="M29.087,220.529 C29.101,220.778 29.112,221.043 29.119,221.322 C29.126,221.602 29.13,222.012 29.13,222.551 C29.13,227.011 28.478,230.303 27.173,232.429 C25.868,234.555 23.847,235.618 21.11,235.618 C18.001,235.618 15.831,234.28 14.597,231.604
C13.364,228.929 12.747,223.95 12.747,216.67 C12.747,209.411 13.363,204.432 14.597,201.736 C15.831,199.04 18.001,197.691 21.11,197.691 C23.833,197.691 25.843,198.676 27.141,200.647 C28.439,202.618 29.087,205.667 29.087,209.794
L29.087,211.07 L23.612,211.07 L23.612,210.261 C23.612,208.083 23.42,206.517 23.035,205.563 C22.65,204.609 22.022,204.132 21.153,204.132 C20.269,204.132 19.631,204.599 19.239,205.532 C18.847,206.465 18.651,208.021 18.651,210.199
L18.651,222.614 C18.651,225.082 18.836,226.804 19.207,227.779 C19.578,228.754 20.212,229.241 21.111,229.241 C22.08,229.241 22.754,228.681 23.132,227.561 C23.509,226.441 23.698,224.346 23.698,221.276 L23.698,220.498
L29.087,220.529 z"/>
         <polyline
             style="fill:#ED92A1;stroke:none"
             id="9E408B91"
             points="33.343,234.655 33.343,186.741 39.032,186.741 39.032,234.655 33.343,234.655 33.343,234.655"/>
         <polyline
             style="fill:#ED92A1;stroke:none"
             id="20508B91"
             points="43.951,194.208 43.951,186.741 49.64,186.741 49.64,194.208 43.951,194.208 43.951,234.655 43.951,198.657 49.64,198.657 49.64,234.655 43.951,234.655 43.951,234.655"/>
         <path
             style="fill:#ED92A1;stroke:none"
             id="C1508B91"
             d="M54.644,234.655 L54.644,198.657 L59.948,198.657 L59.948,202.795 C60.603,200.908 61.381,199.586 62.279,198.828 C63.177,198.071 64.396,197.692 65.936,197.692 C67.147,197.692 68.203,198.092 69.101,198.89 C69.999,199.689 70.641,200.804 71.026,202.235
C71.782,200.617 72.601,199.456 73.485,198.751 C74.369,198.046 75.445,197.693 76.714,197.693 C78.667,197.693 80.139,198.476 81.131,200.042 C82.122,201.608 82.617,203.926 82.617,206.996 L82.617,234.656 L77.013,234.656
L77.013,211.663 C77.013,208.822 76.813,206.986 76.414,206.156 C76.015,205.326 75.281,204.911 74.211,204.911 C73.212,204.911 72.503,205.383 72.083,206.327 C71.663,207.271 71.452,208.987 71.452,211.476 L71.452,234.655
L65.806,234.655 L65.806,211.258 C65.806,208.811 65.61,207.141 65.218,206.249 C64.826,205.357 64.145,204.911 63.176,204.911 C62.149,204.911 61.411,205.389 60.962,206.342 C60.513,207.297 60.289,208.893 60.289,211.134
L60.289,234.655 L54.644,234.655 z"/>
         <path
             style="fill:#ED92A1;stroke:none"
             id="53508B91"
             d="M87.495,234.655 L87.495,186.741 L93.226,186.741 L93.226,201.706 C93.71,200.358 94.349,199.352 95.14,198.688 C95.932,198.024 96.911,197.692 98.081,197.692 C100.448,197.692 102.105,199.067 103.053,201.815
C104.001,204.564 104.475,209.567 104.475,216.827 C104.475,223.838 103.987,228.723 103.01,231.481 C102.033,234.24 100.347,235.619 97.952,235.619 C96.754,235.619 95.731,235.22 94.883,234.421 C94.034,233.623 93.382,232.445 92.926,230.89
L92.926,234.655 L87.495,234.655 z M96.028,204.693 C94.887,204.693 94.107,205.482 93.686,207.058 C93.265,208.635 93.055,212.337 93.055,218.165 C93.055,222.645 93.265,225.528 93.686,226.814 C94.106,228.1 94.887,228.743 96.028,228.743
C97.04,228.743 97.732,228.038 98.103,226.627 C98.474,225.217 98.659,221.929 98.659,216.764 C98.659,211.433 98.474,208.089 98.103,206.73 C97.732,205.373 97.04,204.693 96.028,204.693 z"/>
         <polyline
             style="fill:#ED92A1;stroke:none"
             id="D4508B91"
             points="108.732,194.208 108.732,186.741 114.421,186.741 114.421,194.208 108.732,194.208 108.732,234.655 108.732,198.657 114.421,198.657 114.421,234.655 108.732,234.655 108.732,234.655"/>
         <path
             style="fill:#ED92A1;stroke:none"
             id="17508B91"
             d="M119.383,234.655 L119.383,198.657 L124.986,198.657 L124.986,202.297 C125.585,200.783 126.319,199.637 127.189,198.859 C128.059,198.081 129.049,197.692 130.162,197.692 C131.958,197.692 133.334,198.439 134.289,199.932
C135.244,201.426 135.722,203.572 135.722,206.372 L135.722,234.654 L130.204,234.654 L130.204,210.51 C130.204,208.394 130.018,206.906 129.648,206.045 C129.277,205.185 128.657,204.754 127.787,204.754 C126.832,204.754 126.147,205.283 125.734,206.34
C125.32,207.398 125.114,209.193 125.114,211.723 L125.114,234.653 L119.383,234.653 z"/>
         <path
             style="fill:#ED92A1;stroke:none"
             id="59508B91"
             d="M156.916,231.792 C156.916,234.965 156.812,237.283 156.606,238.746 C156.4,240.209 156.046,241.458 155.547,242.495 C154.905,243.885 153.946,244.942 152.671,245.669 C151.395,246.395 149.858,246.758 148.062,246.758
C145.609,246.758 143.734,246.063 142.437,244.674 C141.139,243.284 140.476,241.261 140.448,238.607 L146.115,238.607 C146.158,239.312 146.361,239.862 146.725,240.256 C147.088,240.65 147.591,240.847 148.233,240.847
C149.316,240.847 150.075,240.365 150.51,239.4 C150.945,238.436 151.162,236.667 151.162,234.095 L151.162,231.606 C150.677,232.955 150.046,233.96 149.269,234.624 C148.492,235.288 147.561,235.62 146.478,235.62
C144.04,235.62 142.336,234.277 141.367,231.591 C140.397,228.905 139.912,223.87 139.912,216.486 C139.912,209.475 140.404,204.59 141.388,201.832 C142.372,199.074 144.054,197.694 146.435,197.694 C147.647,197.694 148.673,198.089 149.515,198.877
C150.356,199.665 151.012,200.848 151.482,202.424 L151.482,198.659 L156.914,198.659 L156.914,231.792 z M148.362,204.568 C147.35,204.568 146.658,205.289 146.288,206.731 C145.917,208.173 145.732,211.683 145.732,217.263
C145.732,222.138 145.921,225.243 146.299,226.581 C146.676,227.919 147.364,228.588 148.362,228.588 C149.503,228.588 150.283,227.805 150.704,226.239 C151.124,224.673 151.335,220.706 151.335,214.338 C151.335,210.356 151.124,207.732 150.704,206.466
C150.283,205.202 149.502,204.568 148.362,204.568 z"/>
         <path
             style="fill:#6B8963;stroke:none"
             id="0B508B91"
             d="M172.85,234.655 L172.85,186.741 L178.581,186.741 L178.581,201.706 C179.065,200.358 179.704,199.352 180.495,198.688 C181.287,198.024 182.266,197.692 183.436,197.692 C185.803,197.692 187.46,199.067 188.408,201.815
C189.356,204.564 189.83,209.567 189.83,216.827 C189.83,223.838 189.342,228.723 188.365,231.481 C187.388,234.24 185.702,235.619 183.307,235.619 C182.109,235.619 181.086,235.22 180.238,234.421 C179.389,233.623 178.737,232.445 178.281,230.89
L178.281,234.655 L172.85,234.655 z M181.383,204.693 C180.242,204.693 179.462,205.482 179.041,207.058 C178.62,208.635 178.41,212.337 178.41,218.165 C178.41,222.645 178.62,225.528 179.041,226.814 C179.461,228.1 180.242,228.743 181.383,228.743
C182.395,228.743 183.087,228.038 183.458,226.627 C183.829,225.217 184.014,221.929 184.014,216.764 C184.014,211.433 183.829,208.089 183.458,206.73 C183.087,205.373 182.395,204.693 181.383,204.693 z"/>
         <path
             style="fill:#6B8963;stroke:none"
             id="4D508B91"
             d="M193.381,216.671 C193.381,209.412 194.023,204.433 195.306,201.737 C196.589,199.041 198.848,197.692 202.085,197.692 C205.336,197.692 207.603,199.041 208.886,201.737 C210.169,204.433 210.811,209.412 210.811,216.671
C210.811,223.931 210.169,228.904 208.886,231.59 C207.603,234.276 205.336,235.619 202.085,235.619 C198.848,235.619 196.589,234.276 195.306,231.59 C194.023,228.904 193.381,223.932 193.381,216.671 z M199.241,216.298
L199.241,217.138 C199.241,222.718 199.433,226.13 199.819,227.374 C200.204,228.618 200.945,229.241 202.043,229.241 C203.184,229.241 203.953,228.655 204.353,227.483 C204.752,226.311 204.952,223.267 204.952,218.351
L204.952,216.889 L204.952,214.836 C204.952,210.128 204.748,207.167 204.342,205.953 C203.936,204.739 203.184,204.133 202.086,204.133 C201.003,204.133 200.257,204.688 199.851,205.798 C199.445,206.908 199.242,209.578 199.242,213.81
L199.242,216.298 z"/>
         <path
             style="fill:#6B8963;stroke:none"
             id="BF508B91"
             d="M231.322,198.657 L231.322,234.655 L225.697,234.655 L225.697,231.077 C225.113,232.571 224.382,233.702 223.505,234.469 C222.628,235.236 221.626,235.62 220.5,235.62 C218.704,235.62 217.334,234.878 216.394,233.395
C215.453,231.913 214.982,229.76 214.982,226.939 L214.982,198.657 L220.5,198.657 L220.5,222.178 C220.5,224.564 220.685,226.207 221.056,227.11 C221.427,228.012 222.054,228.464 222.938,228.464 C223.908,228.464 224.588,227.966 224.98,226.97
C225.372,225.974 225.568,224.201 225.568,221.65 L225.568,198.658 L231.322,198.658 z"/>
         <polyline
             style="fill:#6B8963;stroke:none"
             id="81608B91"
             points="236.219,234.655 236.219,186.741 241.908,186.741 241.908,234.655 236.219,234.655 236.219,234.655"/>
         <path
             style="fill:#6B8963;stroke:none"
             id="93608B91"
             d="M257.734,230.89 C257.264,232.446 256.608,233.623 255.767,234.421 C254.925,235.219 253.899,235.619 252.687,235.619 C250.306,235.619 248.624,234.24 247.64,231.481 C246.657,228.722 246.164,223.838 246.164,216.827
C246.164,209.567 246.642,204.563 247.597,201.815 C248.552,199.067 250.206,197.692 252.559,197.692 C253.727,197.692 254.711,198.024 255.51,198.688 C256.308,199.352 256.943,200.358 257.413,201.706 L257.413,186.741
L263.166,186.741 L263.166,234.655 L257.734,234.655 L257.734,230.89 z M251.981,216.111 C251.981,221.67 252.166,225.165 252.537,226.596 C252.908,228.027 253.599,228.742 254.611,228.742 C255.752,228.742 256.532,228.104 256.953,226.829
C257.373,225.553 257.584,222.935 257.584,218.973 C257.584,212.606 257.373,208.634 256.953,207.057 C256.533,205.481 255.752,204.692 254.611,204.692 C253.613,204.692 252.925,205.372 252.548,206.73 C252.17,208.09 251.981,211.216 251.981,216.111
z"/>
         <path
             style="fill:#6B8963;stroke:none"
             id="35608B91"
             d="M279.057,222.303 L284.446,222.303 C284.446,222.47 284.453,222.708 284.467,223.019 C284.481,223.33 284.488,223.559 284.488,223.704 C284.488,227.811 283.814,230.824 282.467,232.742 C281.12,234.66 278.984,235.62 276.062,235.62
C274.522,235.62 273.231,235.34 272.191,234.78 C271.15,234.22 270.295,233.349 269.625,232.166 C268.826,230.777 268.263,229.024 267.936,226.908 C267.608,224.792 267.444,220.986 267.444,215.49 C267.444,211.114 267.587,207.981 267.872,206.094
C268.157,204.207 268.642,202.661 269.327,201.458 C270.039,200.214 270.97,199.275 272.118,198.643 C273.265,198.01 274.631,197.694 276.213,197.694 C277.739,197.694 279.054,198.031 280.159,198.705 C281.263,199.379 282.18,200.401 282.907,201.769
C283.52,202.973 283.958,204.481 284.222,206.296 C284.486,208.111 284.618,211.041 284.618,215.085 L284.618,217.823 L273.368,217.823 C273.339,218.093 273.322,218.378 273.314,218.678 C273.307,218.979 273.304,219.461 273.304,220.125
C273.304,223.547 273.521,225.943 273.956,227.312 C274.391,228.681 275.129,229.366 276.17,229.366 C277.182,229.366 277.916,228.811 278.373,227.701 C278.828,226.592 279.057,224.792 279.057,222.303 z M273.304,212.098
L278.865,212.098 L278.865,210.574 C278.865,208.106 278.658,206.405 278.244,205.471 C277.83,204.538 277.103,204.071 276.063,204.071 C275.05,204.071 274.331,204.553 273.903,205.518 C273.475,206.482 273.261,208.168 273.261,210.574
C273.289,211.258 273.304,211.766 273.304,212.098 z"/>
         <path
             style="fill:#6B8963;stroke:none"
             id="B6608B91"
             d="M289.044,234.655 L289.044,198.657 L294.519,198.657 L294.519,204.506 C295.303,202.079 296.141,200.347 297.032,199.31 C297.923,198.273 299.01,197.744 300.293,197.723 L300.293,207.835 C300.079,207.793 299.865,207.762 299.651,207.742
C299.437,207.722 299.173,207.711 298.86,207.711 C297.633,207.711 296.66,208.24 295.941,209.298 C295.221,210.356 294.861,211.777 294.861,213.56 L294.861,234.655 L289.044,234.655 z"/>
         <polyline
             style="fill:#6B8963;stroke:none"
             id="28608B91"
             points="303.759,194.208 303.759,186.741 309.448,186.741 309.448,194.208 303.759,194.208 303.759,234.655 303.759,198.657 309.448,198.657 309.448,234.655 303.759,234.655 303.759,234.655"/>
         <path
             style="fill:#6B8963;stroke:none"
             id="0A608B91"
             d="M314.409,234.655 L314.409,198.657 L320.012,198.657 L320.012,202.297 C320.611,200.783 321.345,199.637 322.215,198.859 C323.085,198.081 324.075,197.692 325.188,197.692 C326.984,197.692 328.36,198.439 329.315,199.932
C330.27,201.426 330.748,203.572 330.748,206.372 L330.748,234.654 L325.23,234.654 L325.23,210.51 C325.23,208.394 325.044,206.906 324.674,206.045 C324.303,205.185 323.683,204.754 322.813,204.754 C321.858,204.754 321.173,205.283 320.76,206.34
C320.346,207.398 320.14,209.193 320.14,211.723 L320.14,234.653 L314.409,234.653 z"/>
         <path
             style="fill:#6B8963;stroke:none"
             id="9B608B91"
             d="M351.943,231.792 C351.943,234.965 351.839,237.283 351.633,238.746 C351.427,240.209 351.073,241.458 350.574,242.495 C349.932,243.885 348.973,244.942 347.698,245.669 C346.422,246.395 344.885,246.758 343.089,246.758
C340.636,246.758 338.761,246.063 337.464,244.674 C336.166,243.284 335.503,241.261 335.475,238.607 L341.142,238.607 C341.185,239.312 341.388,239.862 341.752,240.256 C342.115,240.65 342.618,240.847 343.26,240.847
C344.343,240.847 345.102,240.365 345.537,239.4 C345.972,238.436 346.189,236.667 346.189,234.095 L346.189,231.606 C345.704,232.955 345.073,233.96 344.296,234.624 C343.519,235.288 342.588,235.62 341.505,235.62
C339.067,235.62 337.363,234.277 336.394,231.591 C335.424,228.905 334.939,223.87 334.939,216.486 C334.939,209.475 335.431,204.59 336.415,201.832 C337.399,199.074 339.081,197.694 341.462,197.694 C342.674,197.694 343.7,198.089 344.542,198.877
C345.383,199.665 346.039,200.848 346.509,202.424 L346.509,198.659 L351.941,198.659 L351.941,231.792 z M343.388,204.568 C342.376,204.568 341.684,205.289 341.314,206.731 C340.943,208.173 340.758,211.683 340.758,217.263
C340.758,222.138 340.947,225.243 341.325,226.581 C341.702,227.919 342.39,228.588 343.388,228.588 C344.529,228.588 345.309,227.805 345.73,226.239 C346.15,224.673 346.361,220.706 346.361,214.338 C346.361,210.356 346.15,207.732 345.73,206.466
C345.31,205.202 344.529,204.568 343.388,204.568 z"/>
         <path
             style="fill:#666666;stroke:none"
             id="1D608B91"
             d="M383.468,220.529 C383.482,220.778 383.493,221.043 383.5,221.322 C383.507,221.602 383.511,222.012 383.511,222.551 C383.511,227.011 382.859,230.303 381.554,232.429 C380.249,234.555 378.228,235.618 375.491,235.618
C372.382,235.618 370.212,234.28 368.978,231.604 C367.745,228.929 367.128,223.95 367.128,216.67 C367.128,209.411 367.744,204.432 368.978,201.736 C370.212,199.04 372.382,197.691 375.491,197.691 C378.214,197.691 380.224,198.676 381.522,200.647
C382.82,202.618 383.468,205.667 383.468,209.794 L383.468,211.07 L377.993,211.07 L377.993,210.261 C377.993,208.083 377.801,206.517 377.416,205.563 C377.031,204.609 376.403,204.132 375.534,204.132 C374.65,204.132 374.012,204.599 373.62,205.532
C373.228,206.465 373.032,208.021 373.032,210.199 L373.032,222.614 C373.032,225.082 373.217,226.804 373.588,227.779 C373.959,228.754 374.593,229.241 375.492,229.241 C376.461,229.241 377.135,228.681 377.513,227.561
C377.89,226.441 378.079,224.346 378.079,221.276 L378.079,220.498 L383.468,220.529 z"/>
         <path
             style="fill:#666666;stroke:none"
             id="CE608B91"
             d="M387.018,216.671 C387.018,209.412 387.66,204.433 388.943,201.737 C390.226,199.041 392.485,197.692 395.722,197.692 C398.973,197.692 401.24,199.041 402.523,201.737 C403.806,204.433 404.448,209.412 404.448,216.671
C404.448,223.931 403.806,228.904 402.523,231.59 C401.24,234.276 398.973,235.619 395.722,235.619 C392.485,235.619 390.226,234.276 388.943,231.59 C387.66,228.904 387.018,223.932 387.018,216.671 z M392.878,216.298
L392.878,217.138 C392.878,222.718 393.07,226.13 393.456,227.374 C393.841,228.618 394.582,229.241 395.68,229.241 C396.821,229.241 397.59,228.655 397.99,227.483 C398.389,226.311 398.589,223.267 398.589,218.351
L398.589,216.889 L398.589,214.836 C398.589,210.128 398.385,207.167 397.979,205.953 C397.573,204.739 396.821,204.133 395.723,204.133 C394.64,204.133 393.894,204.688 393.488,205.798 C393.082,206.908 392.879,209.578 392.879,213.81
L392.879,216.298 z"/>
         <path
             style="fill:#666666;stroke:none"
             id="50708B91"
             d="M408.747,234.655 L408.747,198.657 L414.051,198.657 L414.051,202.795 C414.706,200.908 415.484,199.586 416.382,198.828 C417.28,198.071 418.499,197.692 420.039,197.692 C421.25,197.692 422.306,198.092 423.204,198.89
C424.102,199.689 424.744,200.804 425.129,202.235 C425.885,200.617 426.704,199.456 427.588,198.751 C428.472,198.046 429.548,197.693 430.817,197.693 C432.77,197.693 434.242,198.476 435.234,200.042 C436.225,201.608 436.72,203.926 436.72,206.996
L436.72,234.656 L431.116,234.656 L431.116,211.663 C431.116,208.822 430.916,206.986 430.517,206.156 C430.118,205.326 429.384,204.911 428.314,204.911 C427.315,204.911 426.606,205.383 426.186,206.327 C425.766,207.271 425.555,208.987 425.555,211.476
L425.555,234.655 L419.909,234.655 L419.909,211.258 C419.909,208.811 419.713,207.141 419.321,206.249 C418.929,205.357 418.248,204.911 417.279,204.911 C416.252,204.911 415.514,205.389 415.065,206.342 C414.616,207.297 414.392,208.893 414.392,211.134
L414.392,234.655 L408.747,234.655 z"/>
         <path
             style="fill:#666666;stroke:none"
             id="C1708B91"
             d="M441.64,234.655 L441.64,198.657 L446.944,198.657 L446.944,202.795 C447.599,200.908 448.377,199.586 449.275,198.828 C450.173,198.071 451.392,197.692 452.932,197.692 C454.143,197.692 455.199,198.092 456.097,198.89
C456.995,199.689 457.637,200.804 458.022,202.235 C458.778,200.617 459.597,199.456 460.481,198.751 C461.365,198.046 462.441,197.693 463.71,197.693 C465.663,197.693 467.135,198.476 468.127,200.042 C469.118,201.608 469.613,203.926 469.613,206.996
L469.613,234.656 L464.009,234.656 L464.009,211.663 C464.009,208.822 463.809,206.986 463.41,206.156 C463.011,205.326 462.277,204.911 461.207,204.911 C460.208,204.911 459.499,205.383 459.079,206.327 C458.659,207.271 458.448,208.987 458.448,211.476
L458.448,234.655 L452.802,234.655 L452.802,211.258 C452.802,208.811 452.606,207.141 452.214,206.249 C451.822,205.357 451.141,204.911 450.172,204.911 C449.145,204.911 448.407,205.389 447.958,206.342 C447.509,207.297 447.285,208.893 447.285,211.134
L447.285,234.655 L441.64,234.655 z"/>
         <path
             style="fill:#666666;stroke:none"
             id="A3708B91"
             d="M490.744,198.657 L490.744,234.655 L485.119,234.655 L485.119,231.077 C484.535,232.571 483.804,233.702 482.927,234.469 C482.05,235.236 481.048,235.62 479.922,235.62 C478.126,235.62 476.756,234.878 475.816,233.395
C474.875,231.913 474.404,229.76 474.404,226.939 L474.404,198.657 L479.922,198.657 L479.922,222.178 C479.922,224.564 480.107,226.207 480.478,227.11 C480.849,228.012 481.476,228.464 482.36,228.464 C483.33,228.464 484.01,227.966 484.402,226.97
C484.794,225.974 484.99,224.201 484.99,221.65 L484.99,198.658 L490.744,198.658 z"/>
         <path
             style="fill:#666666;stroke:none"
             id="25708B91"
             d="M495.684,234.655 L495.684,198.657 L501.287,198.657 L501.287,202.297 C501.886,200.783 502.62,199.637 503.49,198.859 C504.36,198.081 505.35,197.692 506.463,197.692 C508.259,197.692 509.635,198.439 510.59,199.932
C511.545,201.426 512.023,203.572 512.023,206.372 L512.023,234.654 L506.505,234.654 L506.505,210.51 C506.505,208.394 506.319,206.906 505.949,206.045 C505.578,205.185 504.958,204.754 504.088,204.754 C503.133,204.754 502.448,205.283 502.035,206.34
C501.621,207.398 501.415,209.193 501.415,211.723 L501.415,234.653 L495.684,234.653 z"/>
         <polyline
             style="fill:#666666;stroke:none"
             id="07708B91"
             points="516.879,194.208 516.879,186.741 522.568,186.741 522.568,194.208 516.879,194.208 516.879,234.655 516.879,198.657 522.568,198.657 522.568,234.655 516.879,234.655 516.879,234.655"/>
         <path
             style="fill:#666666;stroke:none"
             id="E8708B91"
             d="M533.56,221.338 L533.56,223.765 C533.56,225.694 533.685,226.918 533.935,227.436 C534.184,227.955 534.644,228.214 535.314,228.214 C535.471,228.214 535.595,228.209 535.688,228.198 C535.781,228.188 535.863,228.182 535.934,228.182
L535.934,234.654 C535.107,234.779 534.462,234.861 533.998,234.903 C533.535,234.944 533.16,234.965 532.875,234.965 C530.95,234.965 529.627,234.41 528.908,233.3 C528.188,232.191 527.828,229.904 527.828,226.44
L527.828,204.848 L525.604,204.848 L525.604,198.657 L527.828,198.657 L527.828,188.825 L533.559,188.825 L533.559,198.657 L535.933,198.657 L535.933,204.848 L533.559,204.848 L533.559,221.338 z"/>
         <path
             style="fill:#666666;stroke:none"
             id="DA708B91"
             d="M540.704,246.447 L540.704,240.224 C540.818,240.224 540.939,240.229 541.067,240.24 C541.195,240.25 541.38,240.256 541.623,240.256 C542.436,240.256 543.027,240.064 543.398,239.68 C543.769,239.296 543.954,238.679 543.954,237.828
C543.954,237.558 543.933,237.237 543.89,236.864 C543.848,236.49 543.79,236.128 543.719,235.775 L537.367,198.657 L543.419,198.657 L546.841,224.636 L550.156,198.657 L555.951,198.657 L549.514,238.046 C548.943,241.469 548.184,243.766 547.236,244.938
C546.288,246.11 544.78,246.696 542.713,246.696 C542.399,246.696 542.075,246.675 541.74,246.634 C541.406,246.591 541.06,246.529 540.704,246.447 z"/>
      </g>
   </g>
</svg>
